<svg width="378" height="46" viewBox="0 0 378 46" fill="none" xmlns="http://www.w3.org/2000/svg">
<g clip-path="url(#clip0_668_1174)">
<path d="M346.56 46L357.488 0.385524H369.174L360.883 34.776H378L374.058 46H346.56ZM317.073 46L328.006 0.385524H339.692L331.501 34.3686H345.088L342.285 46H317.073ZM274.665 45.8905L285.637 0.385524H323.267L320.84 10.4398H294.468L292.873 17.0463H319.246L316.635 27.876H290.263L288.625 34.6709H316.123L313.42 45.8905H274.661H274.665ZM241.675 44.8347L243.339 18.7636L232.389 44.8347H215.298L215.184 0.617714L194.296 23.0307L194.869 22.6714L194.852 22.6495H194.909L194.874 22.6714L212.276 44.7164H195.062L184.721 32.2044L173.972 44.7164H167.441L152.383 44.7208L146.382 34.6358L122.09 34.6752L115.761 44.7251H100.838L89.8221 44.7295L89.4848 16.9061L68.3028 44.7295H58.6404L58.3031 18.3869L38.4745 44.7295H0V35.5076H32.1979L36.267 30.4038H0V28.9187H37.2832L42.1976 22.5006H0V21.0198H43.2138L47.4493 15.5874H0V13.6116H48.8071L52.5346 8.83638H0V6.69848H54.2296L57.7863 1.92324H0V0H9.98218L69.3146 0.188381L69.481 25.9571L88.876 0.188381H100.496L100.829 41.435V43.7789L128.415 0.363619H141.472L163.004 37.1505L176.451 22.8379L159.557 0.359238H175.812L186.153 14.3257L198.299 0.359238H215.425L215.39 0.394286H228.583L228.754 24.0295L239.848 0.394286H255.249L253.483 31.2362L271.122 0.394286H284.744L258.341 44.8347H241.675ZM140.802 23.9025L135.287 13.7036L128.958 23.7535L140.802 23.9025Z" fill="#0056B5"/>
</g>
<defs>
<clipPath id="clip0_668_1174">
<rect width="378" height="46" fill="white"/>
</clipPath>
</defs>
</svg>
