<svg width="366" height="46" viewBox="0 0 366 46" fill="none" xmlns="http://www.w3.org/2000/svg">
<g clip-path="url(#clip0_668_836)">
<path opacity="0.98" fill-rule="evenodd" clip-rule="evenodd" d="M89.5492 0H99.3115C99.3284 0.194271 99.2439 0.337863 99.0666 0.430775C87.9194 1.7231 76.9326 3.88542 66.1232 6.90085C57.1548 9.57841 48.617 13.2189 40.5015 17.8223C40.2904 17.8223 40.13 17.9067 40.0117 18.0672C35.9075 20.3647 31.8793 22.7804 27.9356 25.3313C18.6209 25.3904 9.30623 25.4157 0 25.3904V25.1454C26.5506 10.5075 54.8916 2.25523 85.0312 0.363202C86.5513 0.236504 88.0545 0.118252 89.5492 0Z" fill="#D8191C"/>
<path opacity="0.98" fill-rule="evenodd" clip-rule="evenodd" d="M236.194 17.0875C241.97 17.0283 247.746 17.0875 253.514 17.2733C256.149 17.6027 258.361 18.7177 260.16 20.6266C261.047 21.8682 261.579 23.2535 261.748 24.7738C261.832 29.1661 261.832 33.5583 261.748 37.9505C261.351 41.2362 259.62 43.4914 256.563 44.7246C255.034 45.2568 253.463 45.6031 251.867 45.7636H236.743C234.37 45.5946 232.157 44.9189 230.097 43.7533C228.256 42.4103 227.175 40.5943 226.862 38.3221C226.778 33.7272 226.778 29.1323 226.862 24.5373C227.428 20.9898 229.438 18.7346 232.9 17.7632C234.007 17.4845 235.104 17.2564 236.194 17.0959V17.0875ZM238.879 24.4106C242.46 24.3938 246.04 24.4106 249.613 24.4698C250.93 24.4867 252.045 24.9512 252.965 25.8719C253.159 26.1675 253.278 26.4969 253.328 26.8517C253.413 29.9009 253.413 32.9501 253.328 36.0078C252.788 37.4944 251.707 38.2461 250.094 38.263C246.192 38.508 242.282 38.508 238.381 38.263C237.536 38.1701 236.76 37.8829 236.067 37.4099C235.518 36.9031 235.214 36.2696 235.155 35.5179C235.037 32.5447 235.079 29.5715 235.273 26.6068C235.476 26.0324 235.822 25.5678 236.312 25.2046C237.14 24.8076 237.992 24.5458 238.871 24.4106H238.879Z" fill="#008E60"/>
<path opacity="0.98" fill-rule="evenodd" clip-rule="evenodd" d="M40.5015 17.8137H74.0529V25.3818H61.7319V45.0286H52.4594V25.3818H40.0117V18.0587C40.1299 17.8982 40.2904 17.8137 40.5015 17.8137Z" fill="#008E61"/>
<path opacity="0.98" fill-rule="evenodd" clip-rule="evenodd" d="M78.4447 17.8137H107.115V23.9121H84.7868C84.7699 25.3396 84.7868 26.7586 84.8459 28.1861C92.2605 28.0679 99.6835 28.0256 107.115 28.0679V34.1663H84.7868V38.3135H107.115V45.0286C97.5217 45.0455 87.9199 45.0286 78.3265 44.9694C77.6171 44.7498 77.1442 44.2768 76.9247 43.5673C76.8402 35.4755 76.8402 27.3752 76.9247 19.2834C77.2625 18.5993 77.7692 18.1094 78.4532 17.8222L78.4447 17.8137Z" fill="#008E60"/>
<path opacity="0.98" fill-rule="evenodd" clip-rule="evenodd" d="M113.828 17.8139C121.918 17.797 130.017 17.8139 138.107 17.873C140.598 18.4136 142.245 19.9002 143.047 22.3243C143.993 25.3229 143.909 28.2961 142.803 31.2355C141.705 33.761 139.771 35.0786 137.009 35.2053C139.627 38.4319 142.296 41.6247 144.998 44.7838C145.083 44.902 145.083 45.0287 144.998 45.147C141.654 45.0625 138.293 44.9865 134.932 44.902C132.314 41.6501 129.671 38.415 127.002 35.1969C124.722 35.1378 122.45 35.1124 120.17 35.1378V45.0203H112.241C112.224 36.4808 112.241 27.9329 112.3 19.3934C112.587 18.6416 113.094 18.1095 113.828 17.8054V17.8139ZM120.17 24.039C125.051 24.0221 129.933 24.039 134.814 24.0981C135.118 24.2417 135.346 24.4613 135.481 24.7654C135.726 25.9057 135.726 27.046 135.481 28.1862C135.337 28.4903 135.118 28.7184 134.814 28.8535C129.933 28.9127 125.051 28.938 120.17 28.9127V24.0305V24.039Z" fill="#008E60"/>
<path opacity="0.98" fill-rule="evenodd" clip-rule="evenodd" d="M147.38 17.8137H155.918C155.96 23.5405 155.918 29.2504 155.799 34.9603C155.943 36.3624 156.678 37.2999 157.995 37.7645C162.099 38.4994 166.212 38.4994 170.316 37.7645C171.6 37.4182 172.309 36.582 172.453 35.2643C172.512 29.4446 172.537 23.6334 172.512 17.8137H180.931C180.948 24.326 180.931 30.8299 180.872 37.3337C180.636 40.7546 178.947 43.1365 175.805 44.4711C173.5 45.2904 171.118 45.7127 168.669 45.755C165.68 45.755 162.69 45.755 159.701 45.755C157.227 45.7212 154.828 45.2988 152.506 44.4711C149.28 43.0267 147.591 40.5265 147.439 36.9705C147.38 30.5849 147.355 24.1993 147.38 17.8137Z" fill="#008E60"/>
<path opacity="0.98" fill-rule="evenodd" clip-rule="evenodd" d="M187.636 17.8138C191.056 17.7716 194.468 17.8138 197.888 17.9321C199.898 23.6166 201.866 29.3096 203.808 35.0195C205.818 29.2927 207.794 23.5575 209.728 17.8138C213.148 17.7969 216.56 17.8138 219.98 17.8729C220.698 18.0588 221.205 18.4811 221.509 19.1568C221.694 27.7723 221.753 36.3963 221.694 45.0287H213.883C213.9 39.1752 213.883 33.3133 213.824 27.4598C211.831 33.2964 209.779 39.1161 207.659 44.9104C205.1 45.0287 202.533 45.0709 199.974 45.0287C197.914 39.1414 195.853 33.2373 193.809 27.3331C193.75 33.2288 193.725 39.133 193.75 45.0287H185.939C185.922 36.6074 185.939 28.1862 185.998 19.7734C186.226 18.8359 186.775 18.1855 187.645 17.8223L187.636 17.8138Z" fill="#008E60"/>
<path opacity="0.95" fill-rule="evenodd" clip-rule="evenodd" d="M292.927 18.1855C294.227 18.3376 295.528 18.4981 296.828 18.6754C296.786 19.3427 296.685 19.9931 296.524 20.6266C299.666 20.5084 302.816 20.4661 305.983 20.5084V23.5576C302.537 23.5998 299.1 23.5576 295.671 23.4393C295.578 23.7518 295.477 24.0559 295.367 24.3515C298.585 24.4445 301.794 24.4191 305.003 24.2924V27.3416C301.448 27.2234 297.867 27.2065 294.27 27.2825C294.067 27.6457 293.864 28.0173 293.661 28.3806C298.255 28.4735 302.858 28.4566 307.443 28.3214V31.3706C305.577 31.2777 303.702 31.2608 301.828 31.3115C303.778 32.8488 305.974 33.8877 308.415 34.4198C307.418 35.3743 306.726 36.5146 306.337 37.8407C303.576 36.5906 301.152 34.8422 299.075 32.5954C298.779 32.2068 298.517 31.8014 298.281 31.3791C296.212 31.2355 294.134 31.2186 292.057 31.32C291.373 32.2913 290.638 33.2289 289.861 34.1242C290.824 35.0702 291.677 36.1092 292.42 37.2326C291.559 37.8745 290.647 38.4489 289.676 38.9388C289.025 38.035 288.307 37.1819 287.539 36.3794C286.602 37.1396 285.639 37.866 284.676 38.5756C283.865 37.6211 282.987 36.7258 282.05 35.8896C283.376 35.0871 284.676 34.2509 285.951 33.3894C286.796 32.7897 287.573 32.097 288.265 31.3115C286.433 31.2693 284.609 31.2862 282.776 31.3706V28.3214C285.259 28.4735 287.733 28.4735 290.216 28.3214C290.376 27.992 290.545 27.671 290.706 27.3416C288.755 27.2149 286.796 27.2572 284.854 27.4599V24.284C287.252 24.3938 289.65 24.436 292.049 24.4022C292.108 24.1235 292.15 23.8363 292.167 23.5491H283.629V20.4999H292.901V18.1855H292.927Z" fill="black"/>
<path opacity="0.96" fill-rule="evenodd" clip-rule="evenodd" d="M366 41.6078V41.971C365.586 42.9423 365.164 43.9137 364.716 44.9019C364.429 45.3327 364.083 45.6959 363.678 46H362.217C359.497 45.0117 357.243 43.39 355.444 41.1179C353.434 42.4355 351.348 43.6181 349.161 44.657C348.257 43.5674 347.219 42.6383 346.053 41.8527C347.286 41.2192 348.612 40.6702 350.022 40.2056C351.247 39.6651 352.446 39.0738 353.62 38.4403C353.704 38.3221 353.704 38.1954 353.62 38.0771C352.632 36.1935 352.007 34.2001 351.728 32.0969H346.847C346.872 36.1766 346.079 40.0789 344.466 43.8123C344.094 44.5134 343.621 45.1384 343.064 45.7044C342.929 45.7973 342.802 45.7719 342.701 45.6452C342.397 45.2398 342.025 44.8935 341.603 44.6063C340.91 44.26 340.218 43.9137 339.525 43.5674C340.294 43.1873 340.885 42.6214 341.29 41.8612C342.414 39.9438 343.022 37.8659 343.123 35.6361C343.165 34.1748 343.224 32.7051 343.309 31.2438C343.275 30.4668 343.19 29.6897 343.064 28.9295C345.825 28.8957 348.595 28.8957 351.357 28.9295C351.289 27.9497 351.213 26.9783 351.112 25.9985C352.328 26.083 353.552 26.1252 354.768 26.1168V28.921C356.314 28.9379 357.859 28.921 359.405 28.8619C359.21 28.1777 358.906 27.5527 358.493 26.9699C357.386 27.0881 356.263 27.1304 355.14 27.0881V24.2839H350.622C350.664 25.3819 350.706 26.48 350.74 27.578H347.202C347.261 26.48 347.303 25.3819 347.32 24.2839C345.04 24.2585 342.76 24.3008 340.488 24.4021V21.108C342.76 21.2938 345.04 21.3783 347.32 21.3529C347.303 20.2971 347.261 19.2328 347.202 18.177H350.622V21.3529H355.14C355.148 20.3309 355.106 19.3173 355.022 18.3037H358.442C358.4 19.3173 358.357 20.3393 358.324 21.3529C360.604 21.3867 362.884 21.3107 365.156 21.108V24.4021C362.884 24.2923 360.604 24.2501 358.324 24.2839C358.298 24.8667 358.357 25.4326 358.509 25.9901C359.202 25.5002 359.894 25.0103 360.587 24.5288C361.685 25.3904 362.377 26.4884 362.664 27.823C362.149 28.2115 361.6 28.5578 361.018 28.8619C362.242 28.9126 363.458 28.8957 364.674 28.8028V32.0969H355.157C355.275 33.5498 355.664 34.935 356.314 36.2442C357.395 34.9857 358.408 33.6849 359.362 32.3419C360.376 33.0936 361.372 33.8623 362.352 34.6563C360.992 36.1935 359.573 37.6801 358.079 39.1076C359.126 40.2563 360.325 41.2108 361.676 41.971C361.87 41.895 362.031 41.7767 362.166 41.6078C362.529 40.6871 362.774 39.7918 362.901 38.9218C363.737 40.0621 364.767 40.9574 366.008 41.6078H366Z" fill="black"/>
<path opacity="0.96" fill-rule="evenodd" clip-rule="evenodd" d="M318.667 18.3036C320.187 18.878 321.69 19.4861 323.185 20.1365C322.129 21.2177 321.234 22.4171 320.5 23.7348C325.668 23.7939 330.828 23.7939 335.996 23.7348C334.898 25.9731 333.944 28.2706 333.133 30.6272C333.049 30.6947 332.939 30.737 332.829 30.7454C331.681 30.4582 330.541 30.171 329.409 29.8923C329.916 28.9041 330.397 27.9074 330.87 26.9022C326.799 26.8178 322.738 26.8178 318.667 26.9022C317.561 28.5577 316.379 30.171 315.129 31.7252C314.217 30.8806 313.195 30.1879 312.08 29.6474C315.289 26.4714 317.485 22.6874 318.667 18.2952V18.3036Z" fill="black"/>
<path opacity="0.96" fill-rule="evenodd" clip-rule="evenodd" d="M322.205 28.1863H325.861C325.777 33.1866 325.718 38.1955 325.676 43.1958C325.313 43.9645 324.721 44.4713 323.911 44.7247C322.652 45.1216 321.369 45.2652 320.068 45.1554C320.035 43.8631 319.731 42.6468 319.156 41.4981C319.198 41.4558 319.241 41.4136 319.274 41.3798C320.119 41.6754 320.972 41.7346 321.833 41.5656C322.011 41.5065 322.154 41.4052 322.264 41.2616C322.365 36.9031 322.34 32.5532 322.205 28.2032V28.1863Z" fill="black"/>
<path opacity="0.95" fill-rule="evenodd" clip-rule="evenodd" d="M311.1 40.8814C311.817 40.0536 312.577 39.2427 313.354 38.4403C315.128 36.354 316.53 34.0312 317.56 31.4888C318.886 32.0716 320.228 32.6206 321.588 33.1359C319.333 36.2273 317.053 39.2934 314.756 42.3511C313.65 41.5909 312.425 41.101 311.1 40.8898V40.8814Z" fill="black"/>
<path opacity="0.96" fill-rule="evenodd" clip-rule="evenodd" d="M329.527 31.852C330.439 32.7726 331.351 33.7017 332.271 34.6562C333.758 36.3878 335.235 38.1109 336.722 39.8424C335.531 40.6448 334.391 41.5233 333.302 42.4693C331.756 40.1972 330.152 37.9588 328.48 35.7543C327.872 35.0448 327.238 34.3521 326.588 33.6764C327.567 33.0683 328.547 32.4517 329.518 31.8435L329.527 31.852Z" fill="black"/>
<path opacity="0.95" fill-rule="evenodd" clip-rule="evenodd" d="M293.29 31.9704H296.583C296.541 33.7188 296.583 35.4672 296.701 37.2157C296.929 37.2917 297.157 37.3677 297.368 37.4606C298.086 36.4386 298.677 35.3405 299.133 34.1665C300.13 34.9013 301.152 35.6108 302.182 36.3034L299.986 38.4996C302.055 39.3696 304.082 40.3071 306.084 41.3038C305.264 42.2667 304.555 43.3057 303.947 44.4122C301.523 43.0016 299.083 41.6163 296.625 40.2649C296.583 41.3207 296.541 42.3765 296.507 43.4408C296.102 44.2517 295.477 44.8007 294.615 45.0879C293.872 45.3582 293.121 45.5778 292.361 45.7552C291.922 44.4459 291.33 43.2043 290.596 42.0302C291.17 42.0725 291.719 42.14 292.242 42.216C292.572 42.1316 292.893 42.0556 293.222 41.9711C293.281 38.6347 293.307 35.2983 293.281 31.9619L293.29 31.9704Z" fill="black"/>
<path opacity="0.94" fill-rule="evenodd" clip-rule="evenodd" d="M291.947 38.0686H292.31C292.335 38.947 292.42 39.8255 292.555 40.6955C292.512 40.7968 292.47 40.8982 292.436 40.9996C289.945 42.1652 287.42 43.2632 284.87 44.2937C284.532 43.6602 284.228 43.0098 283.958 42.3426C283.772 41.9709 283.527 41.6499 283.223 41.3628C283.139 41.2614 283.156 41.1769 283.282 41.1178C286.297 40.4083 289.185 39.3947 291.947 38.0686Z" fill="black"/>
</g>
<defs>
<clipPath id="clip0_668_836">
<rect width="366" height="46" fill="white"/>
</clipPath>
</defs>
</svg>
