<svg width="385" height="46" viewBox="0 0 385 46" fill="none" xmlns="http://www.w3.org/2000/svg">
<g clip-path="url(#clip0_666_656)">
<path d="M174.732 25.8261H166.318C166.181 25.8261 166.079 25.7063 166.119 25.5466L173.168 11.7572C173.257 11.5442 173.515 11.4688 173.586 11.7572L175.083 25.4534C175.118 25.7018 174.994 25.8261 174.727 25.8261H174.732ZM189.964 38.2844L186.068 7.55119C185.846 5.87854 185.628 4.68506 182.443 4.68506H166.056C164.004 4.68506 162.991 4.7871 162.258 6.09594L144.325 38.7369C143.552 40.0369 144.183 41.155 145.458 41.155H156.039C157.443 41.1372 158.158 40.8355 158.913 39.6065C159.94 37.7387 160.908 35.8176 161.699 34.1272C161.801 33.9896 161.916 33.9231 162.09 33.9187H175.66C175.825 33.9187 176.02 34.0651 176.038 34.2159L176.553 38.9632C176.744 40.7024 177.619 41.155 179.01 41.155H187.738C189.613 41.155 190.266 40.2676 189.959 38.2844H189.964Z" fill="#DC1E37"/>
<path d="M324.458 25.8217H316.049C315.907 25.8217 315.809 25.7063 315.845 25.5422L322.894 11.7617C322.988 11.5354 323.267 11.46 323.321 11.7617L324.827 25.449C324.867 25.6974 324.733 25.8217 324.462 25.8217H324.458ZM339.699 38.2844L335.785 7.54235C335.572 5.86527 335.363 4.68066 332.183 4.68066H315.796C313.748 4.68066 312.717 4.78271 311.984 6.0738L294.065 38.7059C293.305 40.0325 293.905 41.1506 295.206 41.1506H305.774C307.178 41.1106 307.902 40.8089 308.648 39.6022C309.67 37.721 310.647 35.8132 311.442 34.1228C311.54 33.9853 311.647 33.9143 311.838 33.8965H325.4C325.564 33.8965 325.76 34.0607 325.76 34.2115L326.284 38.9588C326.479 40.6891 327.341 41.1506 328.74 41.1506H337.482C339.326 41.1506 339.992 40.2499 339.695 38.28L339.699 38.2844Z" fill="#DC1E37"/>
<path d="M277.909 38.7103L280.721 23.3281C280.895 22.4985 280.499 22.4674 280.21 22.9111L267.404 39.6154C266.755 40.4716 265.751 41.1638 264.934 41.1638H261.833C260.989 41.1638 260.296 40.5693 260.039 39.8949L253.851 22.9732C253.584 22.2766 253.371 22.5162 253.269 23.1196L250.27 39.398C250.088 40.4051 249.418 41.1638 248.387 41.1638H239.072C237.708 41.1638 237.091 40.4716 237.366 39.0918L243.634 7.26273C244.047 5.23515 245.118 4.67168 246.655 4.67168H256.858C258.737 4.67168 260.025 5.07099 260.536 6.41088L265.956 21.0343C266.258 21.7353 266.307 21.7353 266.76 21.0965L278.331 6.36208C279.313 5.08873 280.139 4.64062 281.872 4.64062H294.696C296.917 4.64062 297.224 5.80305 296.926 7.37365L290.721 39.5666C290.503 40.5959 289.748 41.2569 288.624 41.2569H279.775C277.878 41.2569 277.683 39.9836 277.914 38.7103H277.909Z" fill="#DC1E37"/>
<path d="M220.828 20.715L223.324 7.21848C223.689 5.18202 224.719 4.78271 226.336 4.78271H234.354C235.856 4.78271 236.931 5.33287 236.517 7.39595L230.347 38.5595C229.948 40.5827 228.908 41.1595 227.642 41.1595H221.219C220.073 41.1595 219.126 40.7823 218.602 39.9039L209.922 25.165C209.722 24.8145 209.558 24.9255 209.505 25.1872L207.106 38.2845C206.795 39.9837 206.333 41.2526 204.485 41.2526H195.294C193.789 41.2526 193.238 40.4451 193.531 38.9278L199.519 7.28947C199.905 5.1554 201.065 4.79159 202.126 4.79159H208.772C210.407 4.79159 211.202 5.43935 212.263 7.22735L220.304 20.7461C220.45 20.9856 220.757 21.1099 220.823 20.7239L220.828 20.715Z" fill="#DC1E37"/>
<path d="M371.118 14.1531C371.065 14.9029 370.612 17.2411 370.27 18.683C369.883 20.3556 369.212 20.7683 366.818 20.7683H360.288C359.871 20.7683 359.777 20.6307 359.853 20.3024L361.341 12.5204C361.381 12.4228 361.456 12.334 361.634 12.334C363.34 12.2897 369.048 12.2497 369.621 12.334C370.874 12.4583 371.185 13.004 371.114 14.1575L371.118 14.1531ZM378.257 4.63188L352.719 4.68068C349.836 4.68068 349.156 5.20422 348.796 7.04102L342.564 38.9588C342.28 40.4008 342.542 41.053 344.296 41.1595C345.212 41.2216 352.959 41.1683 353.772 41.1595C355.211 41.1595 355.917 40.4762 356.175 39.3404C356.988 35.831 358.018 30.3072 358.245 29.0694C358.351 28.4749 358.405 28.4216 359.4 28.4216H366.512C367.693 28.4216 368.16 28.9806 367.906 30.6178L366.512 39.1807C366.329 40.3165 366.787 41.1506 368.129 41.1506C369.954 41.1595 376.298 41.226 377.453 41.1506C379.229 41.1462 379.945 40.7424 380.358 38.422L381.797 30.4403C382.255 27.938 382.299 24.4374 378.292 23.1064C378.092 23.0443 378.114 22.8624 378.266 22.8358C381.513 21.9484 382.85 20.0096 383.636 17.596C384.138 16.0653 384.56 13.3545 384.871 11.3225C385.644 6.69052 382.801 4.62744 378.257 4.62744V4.63188Z" fill="#DC1E37"/>
<path d="M131.069 17.0505L140.42 5.59934C140.922 4.99151 141.215 4.60107 142.237 4.60107H154.928C156.709 4.60107 156.416 5.77681 155.968 6.32252L137.266 28.7591C137.124 28.9365 137 29.4601 136.96 29.6775L134.752 39.8376C134.525 40.9645 133.57 41.3993 132.349 41.3993H122.825C120.861 41.3993 120.728 40.2901 120.968 38.999L122.767 30.0191C122.843 29.6775 122.856 29.5089 122.727 29.2338L110.627 6.0785C110.285 5.27989 110.835 4.60107 111.875 4.60107H122.527C123.558 4.60107 124.397 4.96932 124.753 5.72357L130.279 17.0638C130.514 17.5652 130.781 17.3966 131.069 17.0505Z" fill="#DC1E37"/>
<path d="M48.584 46L92.1125 27.9913V17.0415L48.584 35.0502V45.9956V46Z" fill="#DC1E37"/>
<path d="M46.0561 19.0557L0 0V10.9498L46.0561 30.0012L92.1122 10.9498V0L46.0561 19.0557Z" fill="#DC1E37"/>
<path d="M0 27.9913L43.5241 46V35.0546L0 17.0415V27.9913Z" fill="#DC1E37"/>
</g>
<defs>
<clipPath id="clip0_666_656">
<rect width="385" height="46" fill="white"/>
</clipPath>
</defs>
</svg>
