<svg width="216" height="46" viewBox="0 0 216 46" fill="none" xmlns="http://www.w3.org/2000/svg">
<g clip-path="url(#clip0_667_702)">
<path d="M206.701 1.31314V22.5804C198.707 15.1718 190.715 7.76329 182.727 0.354739L182.37 -0.00341797V44.4479H191.556V23.3C199.786 30.8246 207.896 38.4753 216.007 45.9999V1.31314H206.708H206.701ZM30.6518 24.6099C27.5499 21.9801 23.733 20.6669 19.916 19.473C17.2908 18.518 14.5498 17.6823 12.4013 15.8882C11.0904 14.8137 10.7328 12.6614 11.6863 11.2288C12.9972 9.19923 15.5032 8.36022 17.8867 8.4796C21.1078 8.4796 24.3289 9.55408 26.7124 11.7063C28.8609 9.67678 31.1252 7.76329 33.2737 5.73042C28.1491 1.19376 20.9919 0.119284 14.4306 0.716213C10.137 1.19376 5.72414 3.22331 3.21813 6.92759C1.30801 9.67678 0.953789 13.2584 1.9072 16.6045C2.74143 19.4697 4.88991 21.8608 7.39261 23.4161C12.0438 26.4041 17.6517 26.9977 22.422 29.7469C23.9713 30.5826 25.0472 32.3767 24.5672 34.1674C23.8521 36.197 21.7037 37.2748 19.6777 37.6329C15.0265 38.2299 10.2561 36.6779 6.55837 33.8093C4.40989 35.8388 2.14555 37.8717 -0.00292969 39.9013C2.50308 41.6954 5.12495 43.3701 8.10766 44.3252C12.0438 45.7578 16.2183 45.8772 20.3927 45.7578C25.0439 45.403 29.6951 43.3701 32.5586 39.5464C35.8989 35.1258 34.9421 28.0755 30.6485 24.6099H30.6518ZM78.6003 1.43253V18.518H59.7539V1.43253H50.4516V44.6833H59.7539V25.5683H78.6003V44.6833H88.0218V1.43253H78.6003ZM138 8.36022V1.43253H106.272V44.6833H138V37.2781H115.459V25.449H137.642V18.6373H115.459V8.36022H138ZM154.575 1.43253V44.6833H163.881V1.43253H154.575Z" fill="black"/>
</g>
<defs>
<clipPath id="clip0_667_702">
<rect width="216" height="46" fill="white"/>
</clipPath>
</defs>
</svg>
